<svg width="1761" height="1713" viewBox="0 0 1761 1713" fill="none" xmlns="http://www.w3.org/2000/svg">
<rect width="1761" height="682" fill="#B9BABA" fill-opacity="0.22"/>
<path d="M1278.37 1439.79C1278.37 1439.72 1278.37 1439.66 1278.37 1439.6C1343.24 1530.79 1473.17 1567.64 1587.92 1524.58C1616.07 1519.87 1644.59 1509.16 1671.62 1494.36C1589.65 1583.23 1459.29 1623.74 1332.93 1590.94C1295.9 1546.63 1276.99 1493.12 1278.35 1440.3L1278.35 1440.3L1278.37 1439.79ZM1287.79 1386.11L1287.31 1385.95L1287.79 1386.11C1304.86 1334.67 1333.83 1288.25 1376.05 1257.63C1369.27 1274.57 1365.39 1292.19 1364.27 1309.96C1360.24 1373.58 1391.55 1439.01 1451.38 1481.89C1453.42 1484.14 1455.57 1486.37 1457.87 1488.57C1474.9 1504.89 1494.09 1515.56 1514.54 1521.48C1419.21 1530.89 1325.16 1487.12 1282.11 1407.37C1283.57 1400.22 1285.46 1393.12 1287.79 1386.11ZM1588.15 1227.43C1505.68 1244.53 1440.2 1311.23 1428.56 1395.44C1425.25 1407.14 1424.38 1419.48 1426.35 1431.91C1396.58 1396.74 1381.94 1353.98 1384.46 1312.18L1384.5 1311.62C1386.12 1286.21 1394.1 1261.17 1408.87 1238.4C1427.36 1229.89 1447.82 1224.03 1470.32 1221.41C1513.55 1216.38 1553.59 1218.57 1588.15 1227.43ZM1509.36 1322.8C1493.25 1326.53 1478.68 1333.36 1466.37 1342.42C1496.7 1283 1559.57 1242.77 1630.37 1242.94C1677.19 1266.33 1707.4 1306.18 1711.59 1360.41C1711.95 1365.09 1711.94 1369.75 1711.59 1374.36C1666.86 1318.7 1584.07 1297.68 1509.36 1322.8ZM1540.03 1453.75L1540.03 1453.75C1524.24 1443.65 1515.71 1427.55 1516.63 1412.81C1516.99 1407.04 1518.79 1401.48 1522.17 1396.54C1534.18 1379.02 1561.69 1376 1583.69 1390.07C1601.77 1401.63 1610.3 1421.03 1606.09 1437.29L1605.63 1439.03L1606.92 1437.77C1620.5 1424.45 1626.39 1405.54 1624.54 1386.75C1641.71 1410.78 1649.02 1439.18 1643.08 1465.57C1612.5 1478.26 1575.52 1477.44 1540.38 1453.96L1540.37 1453.96C1540.33 1453.93 1540.29 1453.91 1540.26 1453.89C1540.23 1453.88 1540.21 1453.86 1540.19 1453.85C1540.13 1453.81 1540.08 1453.78 1540.03 1453.75ZM1398.7 1647.4C1383.6 1638.12 1369.83 1627.73 1357.45 1616.48C1527.67 1646.1 1698.61 1553.85 1756.05 1393.6C1765.42 1370.66 1771.56 1345.17 1777.74 1314.68L1764.99 1522.98C1746.08 1627.03 1650.81 1702.54 1539.01 1698.49C1488.13 1690.18 1439.23 1672.3 1398.7 1647.4ZM1705.67 1401.17C1698.02 1421.74 1683.76 1440.02 1665.49 1453.09C1668.27 1406.96 1640.54 1360.58 1595.57 1333.48C1641.74 1339.33 1683.14 1363.33 1705.67 1401.17ZM1756.31 1664.84C1720.38 1686.11 1679.24 1698.03 1636.63 1702.1C1689.68 1681.83 1733.72 1643.93 1760.57 1595.37L1756.31 1664.84Z" fill="#E0F1E0" stroke="#E0F1E0"/>
<g opacity="0.5">
<rect width="1574" height="953" transform="translate(-787 751)" fill="#009688"/>
<path d="M567.624 1337.39C567.587 1326.73 562.598 1316.28 553.226 1307.25C543.855 1298.22 530.479 1290.97 514.624 1286.32C514.624 1285.95 514.624 1285.57 514.624 1285.2C515.423 1283.29 514.933 1281.26 513.261 1279.56C511.589 1277.86 508.873 1276.64 505.709 1276.16C502.546 1275.67 499.194 1275.97 496.392 1276.98C493.59 1277.99 491.567 1279.64 490.768 1281.55C484.935 1280.86 479.005 1280.51 473.061 1280.51C453.4 1280.47 434.213 1284.17 418.211 1291.08C402.209 1298 390.2 1307.79 383.881 1319.06C377.562 1330.33 377.251 1342.52 382.993 1353.91C388.735 1365.29 400.239 1375.3 415.88 1382.51C413.956 1384.19 413.212 1386.26 413.812 1388.27C414.411 1390.28 416.306 1392.07 419.078 1393.23C421.85 1394.4 425.273 1394.85 428.594 1394.49C431.914 1394.12 434.861 1392.98 436.785 1391.3L437.769 1390.4C452.052 1393.98 467.571 1395.37 482.952 1394.44C498.332 1393.52 513.099 1390.31 525.942 1385.11C538.786 1379.9 549.309 1372.86 556.58 1364.6C563.851 1356.34 567.644 1347.12 567.624 1337.76V1337.39ZM473.553 1379.46C459.812 1379.46 446.379 1376.99 434.953 1372.37C423.528 1367.75 414.623 1361.18 409.364 1353.49C404.105 1345.8 402.73 1337.35 405.411 1329.19C408.091 1321.03 414.708 1313.53 424.425 1307.65C434.141 1301.76 446.521 1297.76 459.998 1296.14C473.476 1294.51 487.445 1295.34 500.141 1298.53C512.836 1301.71 523.687 1307.1 531.321 1314.02C538.955 1320.94 543.03 1329.07 543.03 1337.39C542.998 1348.54 535.667 1359.23 522.645 1367.12C509.622 1375 491.969 1379.44 473.553 1379.46Z" fill="#70C4B4"/>
<path d="M517.944 977.784C534.768 977.743 551.258 974.938 565.656 969.669C566.786 970.655 568.293 971.461 570.049 972.019C571.805 972.576 573.757 972.868 575.74 972.87C578.247 972.867 580.693 972.399 582.749 971.53C585.4 970.392 587.199 968.664 587.752 966.724C588.305 964.785 587.567 962.792 585.7 961.181L584.839 960.362C600.622 949.865 609.351 936.174 609.314 921.979C609.276 907.784 600.473 894.111 584.635 883.644C568.797 873.178 547.068 866.676 523.716 865.414C500.363 864.152 477.076 868.223 458.427 876.826L457.198 876.23C454.687 874.966 451.449 874.358 448.197 874.54C444.946 874.721 441.946 875.678 439.859 877.198C437.772 878.719 436.768 880.679 437.067 882.647C437.367 884.616 438.947 886.432 441.458 887.696C429.988 897.317 423.833 908.887 423.873 920.753C423.857 928.239 426.278 935.653 430.999 942.572C435.719 949.491 442.646 955.779 451.382 961.076C460.119 966.373 470.495 970.575 481.916 973.442C493.338 976.309 505.58 977.784 517.944 977.784ZM587.422 920.828C587.422 929.147 583.347 937.281 575.713 944.198C568.078 951.116 557.227 956.508 544.532 959.692C531.837 962.875 517.867 963.708 504.39 962.085C490.913 960.462 478.533 956.456 468.816 950.573C459.1 944.69 452.483 937.194 449.802 929.034C447.121 920.874 448.497 912.416 453.756 904.73C459.014 897.043 467.919 890.473 479.345 885.851C490.77 881.229 504.203 878.762 517.944 878.762C536.361 878.781 554.014 883.22 567.036 891.104C580.059 898.989 587.389 909.677 587.422 920.828Z" fill="#70C4B4"/>
<path d="M207.694 1615.4C208.528 1616.96 210.184 1618.3 212.407 1619.23C214.629 1620.16 217.294 1620.62 219.991 1620.54C221.285 1620.52 222.568 1620.4 223.803 1620.17C231.919 1618.53 239.912 1616.89 247.782 1615.1C250.847 1614.43 253.346 1613.05 254.729 1611.26C256.113 1609.48 256.268 1607.43 255.16 1605.57C254.612 1604.65 253.764 1603.79 252.667 1603.07C251.57 1602.34 250.245 1601.75 248.77 1601.33C247.294 1600.92 245.697 1600.68 244.071 1600.64C242.445 1600.61 240.823 1600.76 239.297 1601.11C231.673 1602.82 223.926 1604.46 216.179 1606.02C214.59 1606.28 213.106 1606.74 211.813 1607.36C210.521 1607.98 209.447 1608.75 208.655 1609.62C207.864 1610.5 207.371 1611.46 207.206 1612.45C207.041 1613.45 207.207 1614.45 207.694 1615.4Z" fill="#70C4B4"/>
<path d="M665.261 1096.83C667.351 1101.53 669.442 1106.36 671.409 1111.13C672.059 1112.8 673.636 1114.27 675.875 1115.32C678.115 1116.36 680.881 1116.91 683.706 1116.86H686.535C689.693 1116.4 692.422 1115.21 694.127 1113.53C695.832 1111.86 696.374 1109.84 695.634 1107.93C693.667 1102.94 691.576 1097.95 689.24 1093.04C688.904 1092.03 688.229 1091.08 687.259 1090.24C686.288 1089.41 685.042 1088.7 683.598 1088.16C682.154 1087.63 680.544 1087.28 678.868 1087.14C677.193 1087 675.487 1087.07 673.859 1087.35C672.23 1087.63 670.714 1088.1 669.404 1088.75C668.094 1089.4 667.02 1090.21 666.247 1091.12C665.475 1092.03 665.022 1093.03 664.915 1094.05C664.809 1095.07 665.052 1096.1 665.63 1097.06L665.261 1096.83Z" fill="#70C4B4"/>
<path d="M679.156 1325.93C681.933 1325.98 684.659 1325.47 686.892 1324.47C689.125 1323.47 690.733 1322.04 691.453 1320.42C693.667 1315.5 695.757 1310.52 697.602 1305.53C697.965 1304.55 698.007 1303.54 697.724 1302.55C697.442 1301.56 696.841 1300.62 695.956 1299.77C695.071 1298.92 693.92 1298.19 692.567 1297.61C691.214 1297.04 689.686 1296.63 688.072 1296.41C686.457 1296.19 684.786 1296.16 683.155 1296.33C681.524 1296.5 679.965 1296.87 678.566 1297.4C677.167 1297.94 675.956 1298.64 675.003 1299.45C674.049 1300.27 673.371 1301.2 673.008 1302.18C671.163 1307.02 669.196 1311.86 667.105 1316.62C666.28 1318.53 666.736 1320.55 668.372 1322.25C670.008 1323.96 672.692 1325.2 675.836 1325.7C676.924 1325.86 678.039 1325.93 679.156 1325.93Z" fill="#70C4B4"/>
<path d="M682.968 1147.54C684.198 1152.38 685.182 1157.29 686.166 1162.43C686.5 1164.26 687.942 1165.95 690.213 1167.17C692.483 1168.39 695.423 1169.07 698.462 1169.05H699.815C701.423 1168.94 702.979 1168.64 704.393 1168.17C705.808 1167.69 707.054 1167.05 708.059 1166.28C709.064 1165.51 709.81 1164.63 710.252 1163.69C710.694 1162.75 710.825 1161.76 710.636 1160.79C709.776 1155.73 708.669 1150.66 707.439 1145.9C707.205 1144.92 706.655 1143.98 705.821 1143.13C704.986 1142.28 703.884 1141.54 702.577 1140.95C701.269 1140.36 699.782 1139.93 698.201 1139.69C696.619 1139.44 694.974 1139.39 693.359 1139.53C691.744 1139.68 690.191 1140.01 688.789 1140.51C687.387 1141.02 686.163 1141.69 685.186 1142.48C684.21 1143.27 683.501 1144.17 683.099 1145.13C682.697 1146.08 682.611 1147.08 682.845 1148.06L682.968 1147.54Z" fill="#70C4B4"/>
<path d="M664.646 1347.44C661.58 1346.77 658.2 1346.87 655.249 1347.7C652.297 1348.54 650.016 1350.06 648.906 1351.91C646.078 1356.53 643.127 1361.14 640.175 1365.68C639.554 1366.59 639.236 1367.57 639.24 1368.55C639.244 1369.54 639.57 1370.51 640.199 1371.42C640.828 1372.32 641.747 1373.14 642.904 1373.84C644.061 1374.53 645.432 1375.07 646.939 1375.44C648.387 1375.78 649.931 1375.96 651.488 1375.96C653.951 1375.96 656.358 1375.51 658.397 1374.68C660.436 1373.84 662.013 1372.65 662.925 1371.27C666.122 1366.58 669.073 1361.81 672.024 1356.97C673.132 1355.12 672.977 1353.07 671.593 1351.28C670.21 1349.5 667.711 1348.12 664.646 1347.44Z" fill="#70C4B4"/>
<path d="M646.201 1061.62C647.073 1063.03 648.633 1064.25 650.676 1065.12C652.718 1065.98 655.145 1066.45 657.637 1066.46C659.149 1066.43 660.644 1066.25 662.064 1065.94C663.574 1065.59 664.956 1065.07 666.132 1064.4C667.308 1063.73 668.254 1062.92 668.916 1062.03C669.578 1061.14 669.944 1060.17 669.992 1059.2C670.04 1058.22 669.769 1057.25 669.196 1056.33C666.245 1051.57 663.048 1046.8 659.85 1042.11C658.595 1040.29 656.192 1038.84 653.171 1038.08C650.15 1037.33 646.758 1037.33 643.741 1038.09C640.725 1038.85 638.33 1040.31 637.085 1042.14C635.84 1043.96 635.846 1046.02 637.101 1047.84C640.298 1052.39 643.25 1057 646.201 1061.62Z" fill="#70C4B4"/>
<path d="M135.266 1633.87H137.602C145.964 1632.9 154.203 1631.78 162.196 1630.66C163.771 1630.44 165.259 1630.04 166.575 1629.47C167.891 1628.9 169.01 1628.18 169.866 1627.35C170.723 1626.52 171.301 1625.6 171.567 1624.64C171.834 1623.67 171.783 1622.68 171.419 1621.73C171.056 1620.78 170.387 1619.87 169.449 1619.08C168.511 1618.28 167.323 1617.6 165.952 1617.09C164.582 1616.57 163.056 1616.22 161.462 1616.06C159.868 1615.89 158.237 1615.92 156.662 1616.15C148.669 1617.26 140.677 1618.3 132.684 1619.2C131.069 1619.29 129.5 1619.58 128.067 1620.04C126.633 1620.5 125.364 1621.12 124.33 1621.88C123.297 1622.64 122.52 1623.51 122.044 1624.45C121.568 1625.39 121.401 1626.37 121.555 1627.35C121.708 1628.33 122.178 1629.28 122.938 1630.15C123.698 1631.01 124.732 1631.78 125.983 1632.41C127.233 1633.03 128.675 1633.5 130.225 1633.79C131.776 1634.08 133.405 1634.18 135.02 1634.09L135.266 1633.87Z" fill="#70C4B4"/>
<path d="M333.614 1583.39C332.874 1582.51 331.856 1581.74 330.62 1581.11C329.384 1580.47 327.954 1580 326.412 1579.7C324.869 1579.4 323.245 1579.29 321.633 1579.37C320.02 1579.46 318.45 1579.73 317.013 1580.18C309.881 1582.49 302.503 1584.65 295.125 1586.81C292.625 1587.54 290.609 1588.77 289.405 1590.28C288.2 1591.8 287.878 1593.52 288.491 1595.16C289.104 1596.8 290.616 1598.26 292.781 1599.31C294.945 1600.37 297.635 1600.95 300.413 1600.96C302.194 1600.96 303.956 1600.73 305.577 1600.29C313.324 1598.05 320.825 1595.75 328.45 1593.44C331.335 1592.52 333.5 1590.94 334.469 1589.06C335.437 1587.17 335.13 1585.13 333.614 1583.39Z" fill="#70C4B4"/>
<path d="M614.844 1399.41C611.032 1403.81 607.22 1408.12 603.285 1412.44C601.692 1414.16 601.289 1416.19 602.165 1418.09C603.041 1419.99 605.124 1421.6 607.958 1422.57C609.812 1423.17 611.877 1423.5 613.983 1423.54C616.174 1423.53 618.321 1423.16 620.202 1422.48C622.083 1421.8 623.63 1420.83 624.681 1419.66C628.862 1415.27 632.797 1410.73 636.978 1406.19C637.724 1405.32 638.179 1404.37 638.317 1403.39C638.455 1402.41 638.273 1401.43 637.781 1400.5C637.29 1399.56 636.499 1398.7 635.454 1397.95C634.409 1397.2 633.13 1396.58 631.69 1396.14C630.235 1395.66 628.638 1395.37 626.993 1395.28C625.349 1395.19 623.691 1395.3 622.118 1395.61C620.546 1395.91 619.092 1396.41 617.842 1397.06C616.592 1397.72 615.572 1398.52 614.844 1399.41Z" fill="#70C4B4"/>
<path d="M603.777 991.186C600.964 992.168 598.907 993.784 598.055 995.681C597.202 997.578 597.624 999.602 599.227 1001.31C603.285 1005.63 607.22 1009.95 611.524 1014.34C612.569 1015.53 614.128 1016.52 616.033 1017.22C617.939 1017.91 620.12 1018.28 622.345 1018.29C624.347 1018.27 626.319 1017.99 628.124 1017.47C631.01 1016.55 633.175 1014.97 634.144 1013.09C635.112 1011.2 634.805 1009.16 633.289 1007.42C629.354 1002.87 625.173 998.333 620.992 993.941C620.19 993.057 619.1 992.282 617.788 991.661C616.475 991.04 614.969 990.588 613.359 990.33C611.749 990.072 610.07 990.015 608.423 990.163C606.776 990.31 605.195 990.658 603.777 991.186Z" fill="#70C4B4"/>
<path d="M708.423 1267.78C709.529 1262.72 710.513 1257.65 711.374 1252.89C711.7 1250.91 710.717 1248.94 708.642 1247.41C706.566 1245.87 703.568 1244.9 700.307 1244.7C697.045 1244.5 693.788 1245.1 691.251 1246.35C688.715 1247.61 687.106 1249.42 686.78 1251.4C685.919 1256.39 685.059 1261.23 683.952 1266.29C683.496 1268.25 684.341 1270.23 686.301 1271.81C688.261 1273.38 691.176 1274.43 694.404 1274.7H696.126C699.243 1274.71 702.247 1274 704.53 1272.71C706.813 1271.42 708.205 1269.66 708.423 1267.78Z" fill="#70C4B4"/>
<path d="M566.763 1467.83C568.672 1467.83 570.555 1467.57 572.262 1467.05C573.97 1466.53 575.455 1465.78 576.6 1464.86C581.642 1460.69 586.561 1456.52 591.234 1452.27C592.774 1450.65 593.243 1448.73 592.545 1446.9C591.847 1445.07 590.034 1443.47 587.47 1442.41C584.905 1441.36 581.778 1440.93 578.714 1441.21C575.649 1441.49 572.874 1442.47 570.944 1443.94C566.394 1448.03 561.598 1452.05 556.802 1456C555.84 1456.78 555.143 1457.68 554.752 1458.63C554.361 1459.58 554.283 1460.56 554.523 1461.53C554.763 1462.5 555.315 1463.43 556.15 1464.27C556.984 1465.11 558.083 1465.84 559.385 1466.42C561.528 1467.36 564.116 1467.86 566.763 1467.83Z" fill="#70C4B4"/>
<path d="M376.653 1575.42C378.997 1575.44 381.301 1575.05 383.294 1574.3C390.426 1571.55 397.558 1568.72 404.444 1565.82C405.798 1565.27 406.959 1564.56 407.861 1563.74C408.762 1562.92 409.385 1562 409.694 1561.03C410.003 1560.07 409.992 1559.07 409.661 1558.11C409.33 1557.14 408.686 1556.23 407.766 1555.41C406.847 1554.6 405.67 1553.91 404.304 1553.37C402.937 1552.84 401.409 1552.47 399.808 1552.29C398.206 1552.12 396.563 1552.14 394.974 1552.35C393.384 1552.56 391.88 1552.96 390.549 1553.53C383.786 1556.36 377.022 1559.04 370.136 1561.72C367.917 1562.59 366.218 1563.86 365.292 1565.36C364.365 1566.86 364.259 1568.5 364.99 1570.04C365.721 1571.57 367.25 1572.93 369.351 1573.9C371.452 1574.87 374.012 1575.4 376.653 1575.42Z" fill="#70C4B4"/>
<path d="M690.223 1199.21C690.223 1202.41 690.223 1205.69 690.223 1208.89V1214.02C690.223 1216 691.519 1217.89 693.825 1219.29C696.131 1220.68 699.259 1221.47 702.52 1221.47C705.782 1221.47 708.909 1220.68 711.215 1219.29C713.522 1217.89 714.817 1216 714.817 1214.02V1208.89C714.817 1205.54 714.817 1202.19 714.817 1198.84C714.817 1196.86 713.522 1194.97 711.215 1193.57C708.909 1192.17 705.782 1191.39 702.52 1191.39C700.852 1191.39 699.201 1191.59 697.668 1191.99C696.135 1192.39 694.751 1192.97 693.6 1193.7C692.45 1194.43 691.557 1195.3 690.977 1196.24C690.396 1197.19 690.14 1198.2 690.223 1199.21Z" fill="#70C4B4"/>
<path d="M518.436 1484.88C513.025 1488.61 507.615 1492.33 501.958 1495.83C499.668 1497.22 498.382 1499.11 498.382 1501.08C498.382 1503.04 499.668 1504.93 501.958 1506.33C504.238 1507.66 507.277 1508.4 510.443 1508.41C512.108 1508.4 513.752 1508.18 515.274 1507.77C516.796 1507.36 518.164 1506.77 519.297 1506.03C525.076 1502.31 530.856 1498.58 536.389 1494.71C538.377 1493.22 539.335 1491.32 539.065 1489.41C538.794 1487.49 537.315 1485.72 534.936 1484.45C532.558 1483.19 529.463 1482.52 526.297 1482.6C523.131 1482.68 520.139 1483.5 517.944 1484.88H518.436Z" fill="#70C4B4"/>
<path d="M458.059 1521.59C451.91 1524.87 445.762 1528.07 439.368 1531.27C437.418 1532.25 436.014 1533.57 435.349 1535.04C434.683 1536.52 434.788 1538.09 435.649 1539.53C436.51 1540.98 438.085 1542.22 440.159 1543.1C442.233 1543.98 444.705 1544.45 447.237 1544.45C450.111 1544.45 452.895 1543.84 455.107 1542.73C461.625 1539.46 467.404 1536.11 474.291 1532.76C475.518 1532.11 476.522 1531.32 477.243 1530.44C477.964 1529.56 478.389 1528.6 478.492 1527.61C478.595 1526.63 478.374 1525.64 477.843 1524.71C477.312 1523.78 476.481 1522.92 475.397 1522.19C473.226 1520.72 470.182 1519.83 466.931 1519.72C463.681 1519.61 460.49 1520.28 458.059 1521.59Z" fill="#70C4B4"/>
<path d="M-72.0597 1624.56C-73.6745 1624.46 -75.307 1624.55 -76.8638 1624.83C-78.4206 1625.11 -79.8713 1625.57 -81.1331 1626.19C-82.3948 1626.81 -83.4429 1627.57 -84.2176 1628.43C-84.9922 1629.3 -85.4782 1630.24 -85.6477 1631.22C-85.8173 1632.2 -85.6671 1633.19 -85.2058 1634.13C-84.7445 1635.07 -83.981 1635.95 -82.9591 1636.72C-81.9371 1637.48 -80.6766 1638.11 -79.2495 1638.58C-77.8225 1639.05 -76.2569 1639.35 -74.642 1639.45H-73.1664C-70.8576 1650.21 -62.1589 1660.09 -48.6948 1667.25C-35.2307 1674.42 -17.9217 1678.37 0 1678.37C17.9217 1678.37 35.2307 1674.42 48.6948 1667.25C62.1589 1660.09 70.8575 1650.21 73.1664 1639.45H74.642C77.9034 1639.24 80.8951 1638.26 82.9591 1636.72C85.023 1635.17 85.9901 1633.2 85.6477 1631.22C85.3053 1629.25 83.6813 1627.44 81.1331 1626.19C78.5848 1624.94 75.321 1624.35 72.0597 1624.56C68.2947 1614.73 59.1404 1605.95 46.0883 1599.67C33.0363 1593.39 16.8561 1589.97 0.184448 1589.97C-16.4872 1589.97 -32.6674 1593.39 -45.7194 1599.67C-58.7714 1605.95 -67.9258 1614.73 -71.6908 1624.56H-72.0597ZM0 1604.61C12.6911 1604.6 24.8955 1607.56 34.0621 1612.88C43.2288 1618.19 48.6481 1625.44 49.1875 1633.12C49.1875 1633.12 49.1875 1633.64 49.1875 1633.94C49.1875 1641.84 44.0053 1649.41 34.7809 1655C25.5564 1660.58 13.0453 1663.72 0 1663.72C-13.0453 1663.72 -25.5564 1660.58 -34.7808 1655C-44.0052 1649.41 -49.1875 1641.84 -49.1875 1633.94C-49.2353 1633.67 -49.2353 1633.39 -49.1875 1633.12C-48.6481 1625.44 -43.2287 1618.19 -34.0621 1612.88C-24.8955 1607.56 -12.6911 1604.6 0 1604.61Z" fill="#70C4B4"/>
<path d="M297.462 831.633C304.84 833.792 312.095 836.026 319.35 838.334C321.116 838.849 323.046 839.129 325.006 839.153C327.587 839.045 330.046 838.447 332.032 837.444C334.019 836.441 335.434 835.085 336.074 833.568C336.714 832.05 336.547 830.449 335.598 828.992C334.649 827.536 332.965 826.297 330.786 825.453C323.285 823.071 315.661 820.763 308.037 818.529C306.569 818.023 304.945 817.706 303.265 817.598C301.586 817.489 299.888 817.591 298.276 817.897C296.665 818.203 295.175 818.706 293.899 819.376C292.623 820.046 291.589 820.868 290.861 821.791C290.133 822.714 289.727 823.717 289.668 824.739C289.608 825.761 289.897 826.779 290.516 827.731C291.136 828.682 292.072 829.546 293.267 830.268C294.462 830.991 295.89 831.557 297.462 831.931V831.633Z" fill="#70C4B4"/>
<path d="M217.901 812.2C225.648 813.764 233.395 815.402 241.019 817.114C242.508 817.658 244.2 817.965 245.937 818.008C249.199 818.304 252.521 817.804 255.173 816.617C257.825 815.43 259.59 813.654 260.079 811.679C260.568 809.705 259.742 807.693 257.781 806.088C255.821 804.482 252.888 803.413 249.627 803.117C241.429 801.33 233.231 799.618 225.033 797.98C221.935 797.358 218.555 797.507 215.638 798.393C212.721 799.28 210.505 800.832 209.477 802.708C208.45 804.584 208.695 806.63 210.16 808.396C211.624 810.162 214.187 811.504 217.286 812.126L217.901 812.2Z" fill="#70C4B4"/>
<path d="M135.266 798.873C143.259 799.841 151.252 800.958 159.122 802.075C160.102 802.147 161.093 802.147 162.073 802.075C163.688 802.182 165.322 802.096 166.882 801.822C168.441 801.547 169.897 801.089 171.164 800.473C172.432 799.858 173.487 799.098 174.269 798.235C175.051 797.373 175.545 796.426 175.722 795.449C175.9 794.471 175.758 793.481 175.304 792.537C174.85 791.592 174.093 790.711 173.077 789.944C172.061 789.177 170.805 788.538 169.381 788.064C167.957 787.591 166.393 787.292 164.778 787.184C156.662 785.993 148.3 784.951 140.184 783.908C138.593 783.713 136.954 783.711 135.361 783.902C133.769 784.093 132.254 784.472 130.905 785.019C129.557 785.566 128.4 786.269 127.502 787.088C126.604 787.907 125.983 788.825 125.674 789.79C125.277 790.769 125.213 791.787 125.484 792.781C125.756 793.776 126.359 794.727 127.256 795.576C128.153 796.425 129.325 797.155 130.702 797.722C132.079 798.289 133.631 798.681 135.266 798.873Z" fill="#70C4B4"/>
<path d="M49.9254 791.949C58.1643 791.949 66.2802 792.768 74.5191 793.289H75.8718C79.1331 793.388 82.3257 792.698 84.7471 791.372C87.1685 790.046 88.6205 788.191 88.7835 786.216C88.9466 784.242 87.8074 782.309 85.6166 780.843C83.4258 779.377 80.3628 778.498 77.1015 778.399C68.7396 777.878 60.3778 777.431 51.8929 777.059C48.6316 776.911 45.4067 777.553 42.9276 778.844C40.4485 780.136 38.9183 781.971 38.6737 783.946C38.4291 785.92 39.4901 787.873 41.6233 789.374C43.7564 790.875 46.787 791.801 50.0484 791.949H49.9254Z" fill="#70C4B4"/>
<path d="M372.349 856.947C379.235 859.627 385.999 862.382 392.762 865.211C394.818 866.08 397.264 866.548 399.771 866.551C402.385 866.548 404.93 866.039 407.035 865.101C409.14 864.162 410.696 862.842 411.477 861.331C412.258 859.821 412.224 858.199 411.38 856.701C410.535 855.203 408.924 853.907 406.78 853.001C399.771 850.097 392.762 847.193 385.63 844.439C382.889 843.375 379.564 843.013 376.382 843.432C373.201 843.85 370.424 845.016 368.66 846.672C366.904 848.332 366.305 850.345 366.997 852.271C367.689 854.197 369.613 855.879 372.349 856.947Z" fill="#70C4B4"/>
<path d="M-73.7814 905.937H-72.0598C-68.0615 915.596 -58.8473 924.17 -45.8808 930.296C-32.9143 936.422 -16.9389 939.749 -0.492012 939.749C15.9549 939.749 31.9303 936.422 44.8968 930.296C57.8633 924.17 67.0775 915.596 71.0758 905.937H73.7811C77.0424 906.075 80.2609 905.423 82.7284 904.125C85.196 902.826 86.7105 900.987 86.9388 899.013C87.1671 897.038 86.0905 895.09 83.9458 893.596C81.8011 892.102 78.764 891.185 75.5027 891.046H73.9041C73.9204 879.189 66.1562 867.813 52.3196 859.421C38.4829 851.03 19.7072 846.31 0.122864 846.3C-19.4614 846.29 -38.2501 850.991 -52.1099 859.369C-65.9696 867.746 -73.7651 879.114 -73.7814 890.972H-75.38C-78.6413 891.11 -81.6784 892.027 -83.8231 893.521C-85.9677 895.015 -87.0444 896.964 -86.8161 898.938C-86.5878 900.913 -85.0733 902.752 -82.6057 904.05C-80.1382 905.349 -76.9198 906.001 -73.6584 905.863L-73.7814 905.937ZM-0.0001297 865.509C13.0452 865.509 25.5563 868.647 34.7807 874.232C44.0052 879.817 49.1874 887.392 49.1874 895.29C49.1874 895.737 49.1874 896.109 49.1874 896.481C47.7199 903.695 41.9464 910.335 32.9545 915.149C23.9625 919.964 12.3728 922.622 0.368759 922.622C-11.6352 922.622 -23.2249 919.964 -32.2169 915.149C-41.2089 910.335 -46.9824 903.695 -48.4498 896.481C-48.4498 896.109 -48.4498 895.737 -48.4498 895.29C-48.4512 887.469 -43.3704 879.96 -34.3049 874.388C-25.2395 868.816 -12.9172 865.626 -0.0001297 865.509Z" fill="#70C4B4"/>
<path d="M379.85 1432.77C385.753 1429.12 392.147 1425.32 397.066 1421.52C398.322 1420.82 399.321 1419.96 399.996 1419C400.672 1418.05 401.011 1417.02 400.99 1415.98C400.97 1414.94 400.591 1413.92 399.878 1412.98C399.164 1412.03 398.132 1411.19 396.849 1410.5C395.565 1409.81 394.057 1409.29 392.423 1408.98C390.788 1408.66 389.063 1408.56 387.358 1408.67C385.653 1408.78 384.005 1409.11 382.522 1409.63C381.038 1410.15 379.751 1410.86 378.744 1411.7C373.333 1415.35 367.922 1419.14 362.266 1422.42C359.975 1423.81 358.69 1425.7 358.69 1427.67C358.69 1429.63 359.975 1431.52 362.266 1432.92C364.556 1434.29 367.648 1435.07 370.874 1435.08C372.551 1435.08 374.212 1434.88 375.756 1434.48C377.3 1434.09 378.693 1433.5 379.85 1432.77Z" fill="#70C4B4"/>
<path d="M226.509 1482.73C223.655 1483.64 221.514 1485.21 220.547 1487.07C219.581 1488.94 219.867 1490.96 221.344 1492.7C222.375 1493.94 223.958 1494.98 225.913 1495.7C227.869 1496.43 230.119 1496.81 232.411 1496.8C234.302 1496.82 236.169 1496.54 237.822 1495.98C245.446 1493.67 252.947 1491.29 260.202 1488.53C263.039 1487.55 265.113 1485.92 265.966 1484C266.819 1482.09 266.382 1480.05 264.752 1478.33C263.121 1476.61 260.43 1475.36 257.271 1474.84C254.111 1474.33 250.743 1474.59 247.905 1475.58C240.773 1478.18 233.641 1480.64 226.509 1482.73Z" fill="#70C4B4"/>
<path d="M147.562 1501.71C144.301 1502 141.361 1503.06 139.39 1504.66C137.418 1506.25 136.576 1508.26 137.049 1510.24C137.521 1512.21 139.271 1513.99 141.911 1515.18C144.552 1516.38 147.867 1516.89 151.129 1516.6C152.342 1516.59 153.546 1516.47 154.695 1516.23C162.811 1514.74 170.927 1513.18 179.288 1511.39C182.267 1510.68 184.67 1509.29 185.987 1507.53C187.305 1505.76 187.433 1503.75 186.344 1501.93C185.255 1500.11 183.035 1498.61 180.156 1497.77C177.278 1496.92 173.966 1496.79 170.927 1497.39C163.425 1498.73 155.801 1500.3 147.562 1501.71Z" fill="#70C4B4"/>
<path d="M-31.7261 1522.04C-31.7261 1524.01 -30.4305 1525.9 -28.1244 1527.3C-25.8183 1528.7 -22.6905 1529.48 -19.4292 1529.48C-12.9119 1529.48 -6.27153 1529.48 0.368778 1529.48H5.77943C9.04077 1529.48 12.1685 1528.7 14.4746 1527.3C16.7808 1525.9 18.0763 1524.01 18.0763 1522.04C18.0763 1520.06 16.7808 1518.17 14.4746 1516.77C12.1685 1515.38 9.04077 1514.59 5.77943 1514.59H-0.000114441H-18.9373C-20.5931 1514.55 -22.2451 1514.71 -23.7943 1515.07C-25.3435 1515.43 -26.7578 1515.97 -27.9523 1516.66C-29.1467 1517.36 -30.0967 1518.19 -30.7453 1519.12C-31.3938 1520.04 -31.7274 1521.03 -31.7261 1522.04Z" fill="#70C4B4"/>
<path d="M54.8441 1520.85C55.2343 1522.65 56.7002 1524.3 58.9654 1525.49C61.2306 1526.69 64.1386 1527.34 67.141 1527.32H68.7396C77.1014 1526.65 85.4633 1525.83 93.3333 1524.94C96.5946 1524.59 99.4957 1523.48 101.398 1521.84C103.301 1520.2 104.049 1518.17 103.478 1516.19C102.908 1514.22 101.065 1512.46 98.3549 1511.31C95.6452 1510.16 92.2908 1509.7 89.0294 1510.05C81.0365 1510.94 73.1665 1511.69 64.4357 1512.28C61.3157 1512.68 58.5719 1513.79 56.7825 1515.39C54.9931 1516.99 54.2981 1518.94 54.8441 1520.85Z" fill="#70C4B4"/>
<path d="M334.967 1448.18C333.952 1447.41 332.698 1446.78 331.276 1446.31C329.854 1445.84 328.292 1445.54 326.681 1445.44C325.07 1445.33 323.44 1445.42 321.887 1445.7C320.333 1445.98 318.886 1446.44 317.628 1447.06C311.357 1450.11 305.331 1453.09 298.568 1456C297.257 1456.57 296.147 1457.3 295.301 1458.13C294.455 1458.97 293.891 1459.9 293.639 1460.87C293.388 1461.84 293.455 1462.83 293.837 1463.78C294.218 1464.73 294.907 1465.63 295.863 1466.42C296.822 1467.21 298.029 1467.87 299.415 1468.38C300.8 1468.88 302.336 1469.22 303.935 1469.36C305.534 1469.51 307.165 1469.46 308.734 1469.22C310.303 1468.99 311.779 1468.57 313.078 1467.98C319.842 1465.01 326.605 1461.88 333.122 1458.6C335.637 1457.36 337.242 1455.57 337.588 1453.62C337.933 1451.67 336.991 1449.71 334.967 1448.18Z" fill="#70C4B4"/>
<path d="M132.683 913.457C140.676 914.797 148.546 916.212 156.416 917.775C157.652 918.007 158.935 918.132 160.228 918.147C163.49 918.453 166.818 917.962 169.482 916.783C172.145 915.603 173.926 913.831 174.431 911.856C174.937 909.881 174.126 907.866 172.177 906.253C170.229 904.641 167.302 903.563 164.04 903.257C155.801 901.693 147.439 900.204 139.446 898.79C137.869 898.497 136.21 898.399 134.568 898.503C132.927 898.606 131.336 898.909 129.892 899.392C128.448 899.876 127.179 900.53 126.161 901.317C125.144 902.103 124.398 903.006 123.969 903.971C123.54 904.936 123.435 905.943 123.662 906.933C123.89 907.922 124.444 908.874 125.291 909.732C126.139 910.589 127.263 911.334 128.596 911.923C129.929 912.512 131.445 912.932 133.052 913.159L132.683 913.457Z" fill="#70C4B4"/>
<path d="M510.443 1121.63C510.069 1120.64 509.367 1119.71 508.38 1118.9C507.394 1118.08 506.144 1117.4 504.706 1116.88C503.268 1116.37 501.672 1116.04 500.016 1115.91C498.36 1115.78 496.678 1115.86 495.074 1116.14C493.469 1116.42 491.974 1116.89 490.681 1117.53C489.388 1118.17 488.324 1118.96 487.553 1119.86C486.782 1120.76 486.321 1121.74 486.197 1122.75C486.073 1123.75 486.29 1124.77 486.833 1125.72C489.047 1130.49 491.014 1135.33 492.859 1140.61C493.484 1142.29 495.05 1143.79 497.292 1144.85C499.534 1145.91 502.313 1146.46 505.156 1146.42C506.053 1146.49 506.963 1146.49 507.861 1146.42C509.436 1146.2 510.924 1145.8 512.24 1145.23C513.556 1144.66 514.675 1143.94 515.531 1143.11C516.388 1142.28 516.966 1141.36 517.232 1140.39C517.498 1139.43 517.448 1138.44 517.084 1137.49C514.993 1131.75 512.78 1126.69 510.443 1121.63Z" fill="#70C4B4"/>
<path d="M309.02 966.914C311.167 967.923 313.804 968.472 316.521 968.478C319.092 968.488 321.604 968.011 323.704 967.113C325.803 966.214 327.385 964.94 328.226 963.469C329.068 961.998 329.126 960.405 328.395 958.913C327.663 957.42 326.177 956.105 324.146 955.15C317.259 951.949 310.25 948.822 303.118 945.844C301.799 945.225 300.286 944.775 298.671 944.521C297.055 944.268 295.372 944.216 293.722 944.369C292.073 944.522 290.492 944.876 289.076 945.411C287.661 945.945 286.439 946.649 285.487 947.479C284.534 948.308 283.871 949.246 283.537 950.236C283.202 951.226 283.204 952.247 283.542 953.236C283.88 954.225 284.547 955.163 285.502 955.991C286.458 956.819 287.682 957.521 289.099 958.054C295.863 960.586 302.503 963.564 309.02 966.914Z" fill="#70C4B4"/>
<path d="M517.575 1222.88C514.333 1222.76 511.141 1223.42 508.699 1224.72C506.257 1226.02 504.762 1227.85 504.541 1229.81C504.541 1234.8 503.188 1239.78 502.204 1244.7C502.016 1245.67 502.147 1246.66 502.589 1247.6C503.031 1248.54 503.776 1249.42 504.781 1250.19C505.787 1250.96 507.032 1251.6 508.447 1252.07C509.862 1252.55 511.418 1252.85 513.026 1252.96H514.378C517.399 1252.98 520.323 1252.32 522.591 1251.11C524.859 1249.9 526.313 1248.23 526.675 1246.41C527.659 1241.2 528.397 1235.99 529.011 1230.7C529.18 1228.75 528.076 1226.84 525.937 1225.38C523.797 1223.91 520.794 1223.02 517.575 1222.88Z" fill="#70C4B4"/>
<path d="M527.413 1175.75C527.251 1174.78 526.773 1173.83 526.006 1172.96C525.239 1172.1 524.198 1171.33 522.942 1170.71C521.686 1170.09 520.24 1169.62 518.686 1169.34C517.132 1169.05 515.501 1168.96 513.886 1169.05C512.272 1169.15 510.704 1169.44 509.274 1169.91C507.844 1170.37 506.579 1171 505.551 1171.76C504.524 1172.52 503.753 1173.4 503.285 1174.34C502.816 1175.28 502.658 1176.27 502.819 1177.24C503.557 1182.23 504.295 1187.22 504.664 1192.13C504.664 1194.11 505.959 1196 508.265 1197.4C510.571 1198.8 513.699 1199.58 516.961 1199.58C518.628 1199.58 520.279 1199.38 521.813 1198.98C523.346 1198.58 524.73 1198 525.881 1197.27C527.031 1196.54 527.923 1195.67 528.504 1194.73C529.084 1193.78 529.341 1192.77 529.257 1191.76C528.766 1186.18 528.766 1180.97 527.413 1175.75Z" fill="#70C4B4"/>
<path d="M214.089 931.549C221.467 933.633 228.968 935.867 236.223 938.175C237.962 938.744 239.903 939.05 241.879 939.069C244.611 939.06 247.261 938.502 249.41 937.48C251.559 936.459 253.086 935.034 253.748 933.429C254.411 931.824 254.172 930.132 253.069 928.618C251.967 927.105 250.063 925.857 247.659 925.071C240.035 922.614 232.288 920.232 224.418 917.998C221.45 917.169 218.06 917.087 214.993 917.772C211.925 918.456 209.433 919.85 208.063 921.647C206.693 923.443 206.559 925.496 207.689 927.353C208.819 929.21 211.121 930.719 214.089 931.549Z" fill="#70C4B4"/>
<path d="M478.226 1070.11C476.817 1068.33 474.306 1066.97 471.241 1066.31C468.176 1065.66 464.807 1065.76 461.871 1066.61C460.405 1067.03 459.091 1067.62 458.006 1068.35C456.921 1069.08 456.086 1069.94 455.548 1070.87C455.011 1071.79 454.782 1072.78 454.875 1073.76C454.969 1074.74 455.382 1075.7 456.091 1076.58C459.657 1081.05 463.1 1085.67 466.298 1090.28C467.239 1091.63 468.814 1092.78 470.825 1093.58C472.837 1094.39 475.197 1094.82 477.611 1094.82C479.256 1094.81 480.882 1094.6 482.406 1094.23C485.405 1093.46 487.776 1092 488.998 1090.17C490.22 1088.34 490.193 1086.29 488.924 1084.48C485.604 1079.64 482.038 1074.87 478.226 1070.11Z" fill="#70C4B4"/>
<path d="M411.945 1031.32C416.741 1035.41 421.414 1039.58 425.841 1043.75C426.952 1044.8 428.48 1045.66 430.284 1046.26C432.089 1046.86 434.113 1047.17 436.17 1047.17C438.386 1047.19 440.566 1046.83 442.479 1046.16C444.393 1045.48 445.968 1044.5 447.039 1043.33C448.11 1042.15 448.637 1040.82 448.563 1039.48C448.49 1038.14 447.819 1036.84 446.623 1035.71C441.827 1031.32 437.031 1026.92 431.989 1022.68C431.048 1021.88 429.855 1021.2 428.479 1020.68C427.102 1020.16 425.57 1019.81 423.97 1019.65C422.37 1019.5 420.734 1019.53 419.155 1019.75C417.577 1019.98 416.088 1020.39 414.774 1020.97C412.142 1022.12 410.368 1023.85 409.838 1025.79C409.309 1027.73 410.066 1029.71 411.945 1031.32Z" fill="#70C4B4"/>
<path d="M372.964 1002.2C374.111 1002.95 375.499 1003.55 377.043 1003.96C378.588 1004.37 380.255 1004.58 381.941 1004.59C385.031 1004.6 388.016 1003.91 390.303 1002.65C391.505 1001.99 392.478 1001.19 393.167 1000.3C393.855 999.407 394.245 998.442 394.313 997.459C394.382 996.475 394.128 995.494 393.566 994.57C393.005 993.647 392.146 992.8 391.04 992.079C385.138 988.208 378.744 984.634 372.964 980.762C371.852 979.988 370.488 979.361 368.958 978.921C367.427 978.481 365.763 978.237 364.069 978.205C362.375 978.173 360.689 978.353 359.116 978.734C357.543 979.115 356.117 979.689 354.927 980.42C353.737 981.15 352.81 982.022 352.203 982.98C351.596 983.938 351.322 984.961 351.399 985.986C351.477 987.011 351.903 988.015 352.651 988.935C353.399 989.856 354.454 990.673 355.748 991.335C361.528 994.834 367.307 998.482 372.964 1002.2Z" fill="#70C4B4"/>
<path d="M260.325 1344.02C262.162 1344.02 263.977 1343.78 265.637 1343.3C267.296 1342.82 268.759 1342.13 269.916 1341.26C275.327 1337.32 280.491 1333.15 285.287 1328.98C287.205 1327.4 288.023 1325.44 287.563 1323.5C287.102 1321.56 285.402 1319.81 282.828 1318.63C280.167 1317.5 276.876 1317.05 273.673 1317.39C270.47 1317.72 267.616 1318.81 265.735 1320.42C261.185 1324.36 256.39 1327.86 251.471 1331.88C250.449 1332.64 249.687 1333.52 249.226 1334.46C248.766 1335.4 248.617 1336.39 248.789 1337.36C248.96 1338.34 249.448 1339.29 250.225 1340.15C251.002 1341.01 252.052 1341.77 253.315 1342.38C255.312 1343.36 257.763 1343.93 260.325 1344.02Z" fill="#70C4B4"/>
<path d="M119.403 1027.3C126.781 1029.08 134.036 1031.02 141.168 1033.1C142.817 1033.59 144.624 1033.84 146.456 1033.85C149.244 1033.85 151.952 1033.29 154.138 1032.24C156.324 1031.19 157.857 1029.73 158.486 1028.08C159.115 1026.44 158.803 1024.71 157.6 1023.19C156.397 1021.67 154.375 1020.44 151.866 1019.7C144.365 1017.47 136.495 1015.38 128.625 1013.45C125.592 1012.71 122.198 1012.73 119.188 1013.5C116.179 1014.28 113.801 1015.74 112.578 1017.58C111.355 1019.42 111.387 1021.47 112.667 1023.29C113.947 1025.12 116.37 1026.56 119.403 1027.3Z" fill="#70C4B4"/>
<path d="M251.471 1086.04C256.39 1089.76 261.186 1093.48 265.612 1097.58C266.754 1098.58 268.281 1099.39 270.06 1099.95C271.839 1100.5 273.816 1100.79 275.819 1100.78C278.326 1100.78 280.772 1100.31 282.828 1099.44C285.499 1098.31 287.322 1096.59 287.898 1094.65C288.475 1092.71 287.757 1090.71 285.902 1089.09C281.106 1084.92 275.942 1080.75 270.654 1076.73C269.639 1075.97 268.385 1075.33 266.963 1074.86C265.541 1074.39 263.98 1074.1 262.368 1073.99C260.757 1073.89 259.128 1073.98 257.574 1074.26C256.021 1074.54 254.573 1075 253.316 1075.62C250.8 1076.85 249.195 1078.65 248.85 1080.6C248.504 1082.55 249.446 1084.51 251.471 1086.04Z" fill="#70C4B4"/>
<path d="M210.277 1060.58C212.486 1061.76 215.323 1062.42 218.27 1062.44C220.783 1062.44 223.237 1061.97 225.299 1061.1C227.362 1060.23 228.935 1059 229.806 1057.57C230.677 1056.14 230.804 1054.59 230.17 1053.12C229.537 1051.64 228.173 1050.32 226.263 1049.33C219.868 1045.98 213.105 1042.71 206.342 1039.65C205.042 1039.07 203.566 1038.65 201.997 1038.41C200.428 1038.18 198.797 1038.13 197.198 1038.27C195.599 1038.42 194.063 1038.75 192.678 1039.26C191.293 1039.76 190.086 1040.43 189.126 1041.22C188.163 1042 187.467 1042.9 187.076 1043.85C186.684 1044.8 186.607 1045.79 186.847 1046.75C187.086 1047.72 187.639 1048.65 188.473 1049.49C189.308 1050.33 190.407 1051.06 191.708 1051.64C198.103 1054.47 204.251 1057.52 210.277 1060.58Z" fill="#70C4B4"/>
<path d="M198.226 1379.98C200.844 1379.96 203.386 1379.44 205.481 1378.49C212.367 1375.44 219.007 1372.24 225.525 1368.89C226.752 1368.23 227.754 1367.44 228.474 1366.55C229.194 1365.66 229.617 1364.69 229.72 1363.7C229.823 1362.71 229.603 1361.72 229.073 1360.78C228.543 1359.85 227.713 1358.98 226.632 1358.24C225.55 1357.5 224.237 1356.89 222.767 1356.45C221.298 1356.02 219.701 1355.76 218.068 1355.7C216.436 1355.64 214.798 1355.77 213.251 1356.09C211.703 1356.41 210.274 1356.91 209.047 1357.57C203.022 1360.7 196.75 1363.67 190.479 1366.5C189.168 1367.08 188.058 1367.81 187.212 1368.64C186.366 1369.48 185.801 1370.41 185.55 1371.38C185.299 1372.34 185.366 1373.33 185.747 1374.29C186.129 1375.24 186.817 1376.14 187.773 1376.93C188.966 1377.92 190.544 1378.71 192.367 1379.25C194.191 1379.78 196.203 1380.03 198.226 1379.98Z" fill="#70C4B4"/>
<path d="M156.662 1388.47C155.965 1387.58 154.984 1386.78 153.777 1386.13C152.569 1385.47 151.159 1384.96 149.627 1384.64C148.095 1384.31 146.472 1384.18 144.851 1384.23C143.231 1384.29 141.645 1384.54 140.184 1384.97C133.175 1387.05 125.797 1388.99 118.419 1390.78C115.755 1391.41 113.542 1392.59 112.162 1394.11C110.782 1395.63 110.322 1397.4 110.862 1399.1C111.401 1400.81 112.906 1402.34 115.116 1403.44C117.327 1404.55 120.104 1405.15 122.969 1405.15C124.521 1405.12 126.056 1404.94 127.519 1404.62C135.389 1402.69 143.258 1400.6 150.882 1398.37C153.812 1397.52 156.064 1396 157.147 1394.14C158.23 1392.29 158.056 1390.25 156.662 1388.47Z" fill="#70C4B4"/>
<path d="M303.61 1142.4C304.469 1143.84 306.04 1145.08 308.108 1145.96C310.176 1146.84 312.642 1147.31 315.169 1147.31C316.595 1147.31 318.009 1147.16 319.35 1146.87C322.415 1146.2 324.913 1144.81 326.297 1143.03C327.68 1141.24 327.835 1139.19 326.728 1137.34C323.9 1132.5 320.579 1127.66 317.136 1122.97C316.542 1122.02 315.633 1121.15 314.465 1120.42C313.297 1119.69 311.894 1119.11 310.343 1118.72C308.792 1118.33 307.126 1118.14 305.448 1118.16C303.769 1118.17 302.114 1118.4 300.583 1118.81C299.053 1119.23 297.68 1119.83 296.549 1120.59C295.418 1121.34 294.552 1122.22 294.006 1123.18C293.46 1124.14 293.245 1125.16 293.374 1126.17C293.503 1127.19 293.973 1128.17 294.756 1129.07C297.953 1133.47 300.904 1138.16 303.61 1142.4Z" fill="#70C4B4"/>
<path d="M300.413 1299.12C301.996 1299.56 303.714 1299.79 305.454 1299.79C307.841 1299.81 310.181 1299.4 312.19 1298.62C314.199 1297.84 315.789 1296.72 316.768 1295.4C320.211 1290.79 323.408 1285.95 326.359 1281.11C327.362 1279.27 327.141 1277.26 325.741 1275.52C324.342 1273.77 321.875 1272.43 318.864 1271.77C315.854 1271.11 312.538 1271.19 309.621 1271.99C306.703 1272.79 304.415 1274.24 303.241 1276.04C300.536 1280.51 297.584 1284.98 294.264 1289.3C292.934 1291.09 292.833 1293.14 293.986 1294.98C295.138 1296.82 297.449 1298.31 300.413 1299.12Z" fill="#70C4B4"/>
<path d="M342.591 1243.81C343.944 1238.82 345.05 1233.68 345.911 1228.91C346.063 1227.94 345.894 1226.95 345.413 1226.01C344.932 1225.07 344.148 1224.2 343.108 1223.45C342.068 1222.69 340.791 1222.07 339.352 1221.61C337.912 1221.16 336.338 1220.88 334.721 1220.8C331.497 1220.63 328.294 1221.24 325.808 1222.5C323.322 1223.75 321.753 1225.55 321.441 1227.5C320.703 1232.26 319.596 1237.1 318.366 1241.72C318.038 1243.59 318.897 1245.47 320.768 1246.98C322.639 1248.49 325.385 1249.51 328.45 1249.84H330.54C333.392 1249.83 336.154 1249.23 338.352 1248.13C340.551 1247.03 342.049 1245.5 342.591 1243.81Z" fill="#70C4B4"/>
<path d="M318.489 1177.1C319.842 1181.79 320.825 1186.55 321.44 1191.32C321.717 1193.17 323.134 1194.9 325.411 1196.15C327.688 1197.41 330.659 1198.1 333.737 1198.09H334.844C338.019 1197.92 340.96 1197.01 343.048 1195.55C345.135 1194.09 346.206 1192.2 346.034 1190.27C345.296 1185.14 344.189 1180 342.837 1174.94C342.299 1172.96 340.487 1171.2 337.8 1170.03C335.114 1168.87 331.772 1168.39 328.511 1168.72C325.25 1169.05 322.336 1170.14 320.41 1171.77C318.484 1173.4 317.705 1175.42 318.243 1177.39L318.489 1177.1Z" fill="#70C4B4"/>
<path d="M61.4844 1400.75C53.7374 1401.65 45.8674 1402.39 37.9974 1402.99C36.3896 1403.1 34.8337 1403.4 33.4191 1403.87C32.0044 1404.35 30.7587 1404.99 29.7534 1405.76C28.7481 1406.53 28.003 1407.41 27.5607 1408.35C27.1185 1409.29 26.9877 1410.28 27.1762 1411.25C27.5386 1413.07 28.9926 1414.74 31.2606 1415.95C33.5286 1417.15 36.452 1417.82 39.473 1417.8H40.9487C49.3106 1417.13 57.7953 1416.39 66.1572 1415.42C69.4186 1415.04 72.3002 1413.9 74.1681 1412.24C76.0361 1410.58 76.7374 1408.53 76.1178 1406.56C75.4981 1404.59 73.6082 1402.84 70.864 1401.71C68.1197 1400.58 64.7458 1400.15 61.4844 1400.53V1400.75Z" fill="#70C4B4"/>
<path d="M62.7141 1017.17H65.0505C68.3118 1017.37 71.5692 1016.77 74.1059 1015.52C76.6426 1014.26 78.2509 1012.44 78.577 1010.47C78.9032 1008.49 77.9204 1006.52 75.8449 1004.99C73.7694 1003.45 70.7712 1002.48 67.5098 1002.28C59.148 1001.24 50.6631 1000.42 42.9161 999.822C41.3012 999.705 39.6641 999.781 38.098 1000.05C36.5319 1000.31 35.0676 1000.76 33.7887 1001.37C32.5099 1001.98 31.4414 1002.73 30.6444 1003.59C29.8473 1004.45 29.3374 1005.4 29.1436 1006.37C28.9499 1007.35 29.076 1008.34 29.515 1009.29C29.9539 1010.24 30.697 1011.13 31.7019 1011.9C32.7067 1012.67 33.9536 1013.32 35.3714 1013.8C36.7891 1014.29 38.35 1014.6 39.9649 1014.71C47.097 1015.46 54.967 1016.2 62.7141 1017.17Z" fill="#70C4B4"/>
</g>
</svg>
